HIERARCHY
ROOT Pelvis
{
	OFFSET 0.000000 0.000000 0.000000
	CHANNELS 6 Xposition Yposition Zposition Xrotation Yrotation Zrotation
	JOINT LeftUpLeg_virtual
	{
		OFFSET 0.000000 0.000000 0.000000
		CHANNELS 3 Xrotation Yrotation Zrotation
		JOINT LeftUpLeg
		{
			OFFSET 18.735201 -5.666702 -4.541200
			CHANNELS 3 Xrotation Yrotation Zrotation
			JOINT LeftLeg
			{
				OFFSET -0.021200 -31.938179 0.493100
				CHANNELS 3 Xrotation Yrotation Zrotation
				JOINT LeftFoot
				{
					OFFSET 0.021200 -31.938179 -4.336299
					CHANNELS 3 Xrotation Yrotation Zrotation
					JOINT LeftToeBase
					{
						OFFSET 0.943001 -26.722000 15.023500
						CHANNELS 3 Xrotation Yrotation Zrotation
						End Site
						{
							OFFSET 0 0 0
						}
					}
				}
			}
		}
	}
	JOINT RightUpLeg_virtual
	{
		OFFSET 0.000000 0.000000 0.000000
		CHANNELS 3 Xrotation Yrotation Zrotation
		JOINT RightUpLeg
		{
			OFFSET -18.735201 -5.666702 -4.541200
			CHANNELS 3 Xrotation Yrotation Zrotation
			JOINT RightLeg
			{
				OFFSET 0.018946 -31.938133 0.493100
				CHANNELS 3 Xrotation Yrotation Zrotation
				JOINT RightFoot
				{
					OFFSET -0.018946 -31.938126 -4.336299
					CHANNELS 3 Xrotation Yrotation Zrotation
					JOINT RightToeBase
					{
						OFFSET -0.943001 -26.722004 15.023500
						CHANNELS 3 Xrotation Yrotation Zrotation
						End Site
						{
							OFFSET 0 0 0
						}
					}
				}
			}
		}
	}
	JOINT Hips_virtual
	{
		OFFSET 0.000000 0.000000 0.000000
		CHANNELS 3 Xrotation Yrotation Zrotation
		JOINT Hips
		{
			OFFSET -0.000000 -0.000000 -0.000000
			CHANNELS 3 Xrotation Yrotation Zrotation
			JOINT Spine
			{
				OFFSET 0.000000 10.199997 -0.299500
				CHANNELS 3 Xrotation Yrotation Zrotation
				JOINT Spine1
				{
					OFFSET 0.000000 11.900002 -1.516600
					CHANNELS 3 Xrotation Yrotation Zrotation
					JOINT Spine2
					{
						OFFSET 0.000000 13.600006 -2.842500
						CHANNELS 3 Xrotation Yrotation Zrotation
						JOINT Neck_virtual
						{
							OFFSET 0.000000 0.000000 0.000000
							CHANNELS 3 Xrotation Yrotation Zrotation
							JOINT Neck
							{
								OFFSET 0.000000 9.624100 -2.890100
								CHANNELS 3 Xrotation Yrotation Zrotation
								JOINT Head
								{
									OFFSET 0.000000 14.068802 -1.351900
									CHANNELS 3 Xrotation Yrotation Zrotation
									End Site
									{
										OFFSET 0 0 0
									}
								}
							}
						}
						JOINT LeftShoulder_virtual
						{
							OFFSET 0.000000 0.000000 0.000000
							CHANNELS 3 Xrotation Yrotation Zrotation
							JOINT LeftShoulder
							{
								OFFSET 15.263000 10.923401 -0.547700
								CHANNELS 3 Xrotation Yrotation Zrotation
								JOINT LeftArm
								{
									OFFSET 25.438599 -2.830597 -13.032500
									CHANNELS 3 Xrotation Yrotation Zrotation
									JOINT LeftForeArm
									{
										OFFSET 29.960503 0.000000 0.000000
										CHANNELS 3 Xrotation Yrotation Zrotation
										JOINT LeftHand
										{
											OFFSET 27.849251 0.000000 0.000000
											CHANNELS 3 Xrotation Yrotation Zrotation
											End Site
											{
												OFFSET 0 0 0
											}
										}
									}
								}
							}
						}
						JOINT RightShoulder_virtual
						{
							OFFSET 0.000000 0.000000 0.000000
							CHANNELS 3 Xrotation Yrotation Zrotation
							JOINT RightShoulder
							{
								OFFSET -15.263000 10.923401 -0.547700
								CHANNELS 3 Xrotation Yrotation Zrotation
								JOINT RightArm
								{
									OFFSET -25.438599 -2.830597 -13.032500
									CHANNELS 3 Xrotation Yrotation Zrotation
									JOINT RightForeArm
									{
										OFFSET -29.960503 0.000000 0.000000
										CHANNELS 3 Xrotation Yrotation Zrotation
										JOINT RightHand
										{
											OFFSET -27.849251 0.000000 0.000000
											CHANNELS 3 Xrotation Yrotation Zrotation
											End Site
											{
												OFFSET 0 0 0
											}
										}
									}
								}
							}
						}
					}
				}
			}
		}
	}
}
MOTION
Frames: 11
Frame Time: 0.03333333
0.565704 81.665131 0.520901 0.000000 0.000000 0.000000 1.571378 -13.527908 -1.952103 -42.323243 7.440170 15.870595 56.611173 5.113743 -2.314640 -0.575536 5.388116 -4.699361 0.000000 0.000000 0.000000 -4.462843 -6.405069 5.616215 -39.229919 -6.360668 -10.811343 54.502966 -6.361417 -4.065698 -6.051128 -6.440879 1.232363 0.000000 0.000000 0.000000 5.672630 2.570276 -0.216526 15.181506 1.903130 -1.825941 10.287811 1.076046 1.015800 5.564384 0.858134 -0.271152 0.000000 0.000000 0.000000 2.297379 0.708833 1.021702 -0.788055 -0.245809 1.427571 0.000000 0.000000 0.000000 5.431816 -1.222138 0.278220 2.172733 -17.246279 2.179438 -50.769045 -33.330469 -69.759686 -156.526106 -78.326997 -154.823381 0.000000 0.000000 0.000000 6.700615 1.756518 0.357766 2.674721 11.964033 5.790189 -45.009123 43.391512 49.877579 -162.811629 80.946047 160.004708 0.000000 0.000000 0.000000 
0.385698 82.177925 -0.965677 0.000000 0.000000 0.000000 2.173597 -13.678861 -1.905204 -41.261186 7.515459 15.671253 56.227483 5.897405 -1.792095 -1.535722 5.799192 -3.460302 0.000000 0.000000 0.000000 -4.507800 -5.822468 5.693096 -39.023528 -6.267136 -10.543100 54.556433 -7.071729 -4.224265 -6.639069 -6.926564 0.476380 0.000000 0.000000 0.000000 4.943615 3.706827 -1.038686 19.125704 2.659473 -1.165650 10.631892 0.863793 0.472064 5.880757 0.929205 -0.250629 0.000000 0.000000 0.000000 2.538753 0.566605 0.971791 -0.745720 -0.284013 1.641454 0.000000 0.000000 0.000000 5.629830 -1.284070 0.277220 2.949517 -17.108816 2.756951 -53.935050 -33.728581 -71.266686 -161.692585 -76.318157 -159.939958 0.000000 0.000000 0.000000 6.950949 1.418474 0.322933 3.375862 10.017841 6.021297 -46.323101 45.430771 48.430812 -163.869748 78.386973 160.430434 0.000000 0.000000 0.000000 
1.165812 81.593536 -0.010401 0.000000 0.000000 0.000000 2.489234 -13.918524 -2.937809 -40.056696 7.910734 14.238387 55.774550 6.243453 -1.743116 -2.058743 6.101495 -3.212805 0.000000 0.000000 0.000000 -3.975860 -5.912289 5.681348 -38.113979 -6.350730 -10.446493 53.298305 -7.319512 -3.907584 -7.668204 -7.351485 0.736361 0.000000 0.000000 0.000000 5.525752 4.453571 -0.422612 16.635716 1.598470 -0.024122 11.650033 1.165820 -0.045468 5.599766 1.057359 -0.068097 0.000000 0.000000 0.000000 3.433995 0.752859 0.911077 -0.514535 -0.329942 1.577191 0.000000 0.000000 0.000000 5.984764 -0.918311 0.434362 2.918734 -18.913352 2.721579 -56.520474 -33.589252 -71.927506 -163.147060 -75.485208 -161.073387 0.000000 0.000000 0.000000 6.952587 1.696641 0.318882 3.507450 9.930485 6.241705 -49.119107 46.842151 49.787875 -161.920412 78.566252 157.172502 0.000000 0.000000 0.000000 
1.738091 81.688828 0.025938 0.000000 0.000000 0.000000 2.394059 -16.180319 -3.031374 -40.059005 7.414847 13.957182 56.096695 6.091576 -1.758020 -2.175963 5.923551 -3.387385 0.000000 0.000000 0.000000 -4.407873 -6.432453 5.740774 -38.673358 -6.443677 -10.364710 52.283240 -7.345295 -3.884742 -8.799328 -7.417305 0.831084 0.000000 0.000000 0.000000 5.080391 4.960403 -0.971605 17.932735 0.149781 -0.115816 10.959644 0.652454 0.565818 6.185860 1.073505 -0.368864 0.000000 0.000000 0.000000 3.407190 0.570575 0.967416 -0.458266 -0.387659 1.617966 0.000000 0.000000 0.000000 6.467835 -1.020166 0.503575 2.924926 -18.155254 3.898041 -58.283999 -33.282931 -73.219758 -163.763170 -73.285368 -161.454785 0.000000 0.000000 0.000000 7.306168 1.572751 0.352674 3.192640 8.442740 7.043014 -49.232898 47.443945 48.358439 -166.821524 76.482641 162.224055 0.000000 0.000000 0.000000 
1.805560 81.578461 -1.536640 0.000000 0.000000 0.000000 2.884180 -15.599264 -2.680060 -39.902447 7.560115 14.491119 57.293355 6.015470 -2.006515 -1.567109 5.931712 -3.756064 0.000000 0.000000 0.000000 -4.112195 -6.883549 5.390998 -38.327784 -6.507819 -10.732373 51.916172 -7.999165 -3.690274 -9.551035 -8.024813 0.694715 0.000000 0.000000 0.000000 7.007917 6.766524 -1.382537 17.018697 -0.099276 0.468649 11.838029 1.245361 -0.075392 5.863639 1.146829 -0.270658 0.000000 0.000000 0.000000 3.886730 0.837767 0.750109 -0.417785 -0.305225 1.574065 0.000000 0.000000 0.000000 6.858672 -0.839681 0.634410 3.107318 -17.577458 4.367799 -57.571794 -34.205925 -72.377493 -163.995355 -73.385984 -161.845840 0.000000 0.000000 0.000000 7.217386 1.606855 0.371553 3.243331 8.922726 6.091604 -49.384747 49.743926 48.390876 -169.761333 73.995080 165.581298 0.000000 0.000000 0.000000 
1.921345 81.685539 -0.935575 0.000000 0.000000 0.000000 3.074545 -17.505758 -3.057430 -39.479439 7.319376 13.875412 56.462572 6.628053 -2.043923 -2.362677 6.493298 -3.416186 0.000000 0.000000 0.000000 -4.168130 -7.850000 5.153454 -38.199581 -6.686989 -10.809963 50.886829 -7.571614 -3.714666 -10.161910 -7.718470 0.976841 0.000000 0.000000 0.000000 5.228324 3.764447 -0.542432 17.514084 0.900899 2.478722 11.137770 0.581938 -0.204197 6.703908 1.210241 -0.473479 0.000000 0.000000 0.000000 3.196357 1.052535 0.745117 -0.283753 -0.438656 1.641316 0.000000 0.000000 0.000000 6.769910 -1.041783 0.329061 3.434548 -19.596091 4.356283 -57.784138 -33.467462 -72.843763 -165.195160 -72.773248 -163.593044 0.000000 0.000000 0.000000 7.178379 1.504756 0.449844 2.968648 8.009752 6.313508 -52.672162 51.487240 50.277381 -169.300746 76.055557 165.645557 0.000000 0.000000 0.000000 
1.275739 81.587914 -1.815994 0.000000 0.000000 0.000000 2.732423 -15.870158 -3.006877 -40.113414 7.584272 14.226172 55.930022 6.914510 -2.525098 -3.072188 6.963913 -3.921673 0.000000 0.000000 0.000000 -5.313259 -7.718442 5.245629 -39.575690 -6.518903 -10.574627 50.223265 -7.521040 -3.515562 -10.553459 -7.820902 1.255307 0.000000 0.000000 0.000000 6.408574 4.889901 -0.278997 16.389742 0.770254 1.715185 10.139813 1.301997 0.032360 6.767784 0.799570 -0.409721 0.000000 0.000000 0.000000 2.817967 1.097014 0.862739 -0.616775 -0.523347 1.641811 0.000000 0.000000 0.000000 6.894022 -0.893802 0.438768 3.480141 -20.525516 4.639213 -58.859906 -34.190056 -72.445672 -165.512327 -71.122179 -163.625419 0.000000 0.000000 0.000000 6.920832 1.517274 0.517933 2.577591 7.260445 6.038312 -52.587518 51.000719 49.777070 -165.754238 78.018075 162.188115 0.000000 0.000000 0.000000 
1.574813 82.501404 -2.574135 0.000000 0.000000 0.000000 2.765462 -16.005259 -3.281002 -39.735039 7.622881 13.781939 54.818873 7.013415 -2.064816 -3.882237 6.873804 -3.333541 0.000000 0.000000 0.000000 -4.966818 -6.622469 4.964092 -38.791721 -6.234401 -10.645562 49.603050 -7.849527 -3.636901 -10.805789 -8.028551 0.761523 0.000000 0.000000 0.000000 7.451868 5.373889 -0.395058 17.983058 2.691180 1.416367 9.687315 1.409833 0.511443 5.983893 0.903577 -0.508164 0.000000 0.000000 0.000000 2.787728 1.361333 0.577839 -0.740886 -0.613860 1.641518 0.000000 0.000000 0.000000 7.280133 -0.913931 0.314651 3.252164 -20.143995 4.816815 -58.595558 -33.069676 -71.108389 -165.679776 -70.931480 -163.141363 0.000000 0.000000 0.000000 7.595774 1.581585 0.546599 2.288935 6.866603 7.038358 -55.444040 51.448434 52.731198 -164.354951 75.663429 160.979363 0.000000 0.000000 0.000000 
1.142188 82.749405 -2.611328 0.000000 0.000000 0.000000 2.405562 -16.763598 -2.847247 -40.212462 7.179243 14.201869 55.384406 6.909496 -1.946052 -3.426395 6.734563 -3.234699 0.000000 0.000000 0.000000 -4.993197 -7.969865 5.132258 -38.905116 -6.651554 -10.514243 49.103101 -7.694601 -3.602203 -11.128023 -7.937847 0.923959 0.000000 0.000000 0.000000 8.818066 5.587695 -0.036130 17.884348 1.260792 1.169869 9.637861 1.254796 0.369766 6.080339 0.865793 -0.359828 0.000000 0.000000 0.000000 2.872180 1.464315 0.875806 -0.719459 -0.701899 1.771001 0.000000 0.000000 0.000000 7.419942 -0.675986 0.495774 3.636251 -20.153841 5.829554 -59.408842 -33.902768 -70.351181 -166.513933 -70.432036 -163.845050 0.000000 0.000000 0.000000 7.035380 1.535072 0.617488 2.068578 6.889491 6.664568 -54.924731 52.273220 53.303800 -162.344772 77.361072 159.442652 0.000000 0.000000 0.000000 
1.358274 82.911751 -2.932274 0.000000 0.000000 0.000000 2.472847 -16.165649 -2.583045 -39.887270 7.176153 14.359035 55.557992 6.743223 -2.092349 -3.217063 6.671445 -3.561306 0.000000 0.000000 0.000000 -4.876582 -6.652956 5.591154 -38.653939 -6.480953 -9.970729 51.895306 -7.234546 -3.531629 -9.384026 -7.434812 1.297016 0.000000 0.000000 0.000000 9.405928 6.561356 0.227365 18.396288 1.684716 1.026335 10.218432 1.407816 0.333478 6.354238 0.961508 -0.371027 0.000000 0.000000 0.000000 3.010432 1.470615 0.943182 -0.682270 -0.714611 1.720931 0.000000 0.000000 0.000000 7.767016 -0.809026 0.640626 3.940972 -20.395696 5.641793 -59.244419 -34.512068 -69.931500 -166.047035 -70.361822 -163.422043 0.000000 0.000000 0.000000 7.332458 1.544480 0.732142 2.054590 6.749849 6.109861 -54.637873 52.398165 53.064508 -163.459309 77.428896 160.695636 0.000000 0.000000 0.000000 
1.256514 82.743515 -2.756935 0.000000 0.000000 0.000000 2.120794 -16.305793 -2.646131 -40.177205 7.063736 14.272309 55.341946 6.809332 -1.870926 -3.535515 6.624151 -3.239397 0.000000 0.000000 0.000000 -4.766280 -6.513745 5.458580 -38.264154 -6.425235 -9.938385 50.216084 -7.282715 -3.541384 -10.289935 -7.565929 1.236053 0.000000 0.000000 0.000000 9.688832 6.972242 0.230363 17.778511 -0.603526 1.551811 10.406524 1.442875 0.027249 6.389712 0.962898 -0.390641 0.000000 0.000000 0.000000 3.008645 1.465780 0.863840 -0.636553 -0.747063 1.713537 0.000000 0.000000 0.000000 7.659606 -0.648327 0.615459 3.573631 -19.642161 5.337997 -59.403002 -32.881880 -69.517993 -165.654600 -70.479055 -163.038542 0.000000 0.000000 0.000000 7.299760 1.548022 0.573352 2.318307 6.500356 5.884665 -53.665107 52.970125 52.023048 -163.997541 77.598954 161.096773 0.000000 0.000000 0.000000 
